<?xml version="1.0" encoding="utf-8" ?><svg xmlns="http://www.w3.org/2000/svg" xmlns:xlink="http://www.w3.org/1999/xlink" width="458" height="458" viewBox="0 0 458 458"><path fill="#FE0100" transform="matrix(0.916 0 0 0.916 0.0078125 0)" d="M177.864 186.595C182.501 186.141 189.296 188.523 192.734 191.565C209.054 206.005 202.693 235.131 179.528 237.091C156.932 237.254 148.285 211.127 161.158 194.598C165.282 189.304 171.325 187.175 177.864 186.595ZM180.427 230.802C196.79 228.048 199.656 204.814 187.333 195.614C184.943 193.83 180.234 192.532 177.299 192.87C160.654 193.96 156.702 219.725 169.743 228.115C173.68 230.648 175.924 230.854 180.427 230.802Z"/><path fill="#FE0100" transform="matrix(0.916 0 0 0.916 0.0078125 0)" d="M374.621 187.605C381.574 187.564 388.672 187.444 395.544 187.615C402.83 187.795 409.61 192.232 409.67 200.121C409.717 206.349 406.159 209.507 401.282 212.236C406.282 215.987 408.099 223.748 408.639 229.742C410.659 229.692 411.485 229.697 413.476 229.958C413.567 231.982 413.575 234.075 413.61 236.106C411.046 235.96 406.618 236.199 403.922 236.27C402.689 233.503 401.146 226.126 400.382 222.81C397.361 212.683 395.031 213.931 385.456 213.643C385.68 216.769 385.816 227.579 385.407 230.514C387.312 230.359 388.638 230.371 390.559 230.412C390.465 232.363 390.498 234.208 390.524 236.155C386.262 235.851 378.994 236.189 374.457 236.185C374.232 234.248 374.287 232.363 374.3 230.416C376.094 230.384 377.402 230.389 379.186 230.516C378.802 226.595 378.961 220.355 378.959 216.292C378.915 208.677 378.951 201.062 379.066 193.448C377.52 193.489 375.972 193.519 374.425 193.54C374.328 192.219 373.945 188.643 374.621 187.605ZM385.44 208.522L385.801 208.484C390.961 207.958 396.577 209.491 400.589 206.328C402.45 204.333 402.81 202.886 402.716 200.156C402.406 191.088 391.333 194.023 385.472 193.215C385.672 197.707 385.747 204.032 385.44 208.522Z"/><path fill="#FE0100" transform="matrix(0.916 0 0 0.916 0.0078125 0)" d="M159.959 258.577C166.513 258.54 179.414 257.741 185.1 259.26C197.86 262.669 198.229 277.217 186.381 283.199L186.653 283.372C192.029 286.855 192.866 294.681 194.118 300.65C195.482 300.709 197.095 300.67 198.481 300.671C198.498 303.027 198.474 304.911 198.803 307.259C196.361 307.047 191.614 307.235 188.993 307.268C188.128 305.051 186.583 297.826 185.957 295.16C183.356 284.12 180.809 284.893 170.681 284.634C170.813 288.47 170.992 297.925 170.655 301.469C172.405 301.293 174.029 301.408 175.783 301.482C175.714 303.632 175.733 304.967 175.888 307.108C171.599 306.807 164.039 306.989 159.649 307.13C159.491 305.035 159.522 303.631 159.592 301.517C161.312 301.384 162.671 301.449 164.392 301.509C164.048 297.291 164.229 290.591 164.248 286.092C164.277 279.001 164.091 271.329 164.339 264.31C162.515 264.455 161.511 264.454 159.709 264.312C159.538 262.77 159.119 259.849 159.959 258.577ZM170.691 279.478C175.617 279.316 181.867 280.179 185.752 277.403C187.518 275.576 188.08 274.332 188.065 271.776C188.01 262.294 177.016 264.63 170.648 264.212C170.848 268.041 170.904 275.626 170.691 279.478Z"/><path fill="#FE0100" transform="matrix(0.916 0 0 0.916 0.0078125 0)" d="M88.9879 187.51C97.2286 187.985 106.48 186.669 114.462 188.319C124.417 190.377 127.396 202.513 120.15 209.297C118.592 210.755 117.471 211.303 115.575 212.237C120.759 215.167 122.657 224.039 123.229 229.629C129.239 229.91 127.63 230.675 128.043 236.216C124.849 236.001 121.365 236.081 118.157 236.124C117.235 233.349 116.09 227.919 115.377 224.934C112.544 212.877 110.984 214.079 99.978 213.679C100.055 219.187 100.019 224.908 99.9813 230.42C102.19 230.277 102.738 230.263 104.961 230.506C104.891 232.255 104.997 234.343 105.045 236.122C100.781 235.796 93.5535 236.123 89.0953 236.205C88.9524 234.306 89.0459 232.193 89.0861 230.27C90.5224 230.392 92.1599 230.427 93.6186 230.487C93.3232 224.949 93.5122 217.959 93.5162 212.281C93.5203 206.471 93.2865 199.19 93.6017 193.499L89.0431 193.504L88.9879 187.51ZM99.9952 208.503L100.348 208.463C105.601 207.907 110.916 209.592 115.096 206.239C116.919 204.106 118.078 201.68 117.203 198.813C114.899 191.257 106.179 193.972 99.9775 193.213C99.9958 198.104 100.133 203.68 99.9952 208.503Z"/><path fill="#FE0100" transform="matrix(0.916 0 0 0.916 0.0078125 0)" d="M375.681 255.111C387.66 254.969 399.64 254.966 411.618 255.102C411.372 259.064 411.458 265.713 411.553 269.733C409.126 269.681 406.697 269.723 404.273 269.857C404.217 266.775 404.19 264.109 404.325 261.028C399.415 261.275 391.072 261.41 386.305 261.008C386.557 263.593 386.646 275.105 386.147 277.324C390.15 276.913 397.523 277.093 401.825 277.092C401.734 279.315 401.676 280.858 401.826 283.061C397.556 282.783 390.831 283.08 386.272 283.015C386.663 286.633 386.468 293.754 386.469 297.562C386.492 298.424 386.327 299.442 386.218 300.311C391.444 300.01 399.101 300.125 404.41 300.252C404.168 298.054 404.19 293.868 404.132 291.469C406.618 291.52 409.104 291.506 411.59 291.427C411.368 295.019 411.398 302.567 411.561 306.19C407.483 305.993 402.102 306.166 397.876 306.174L374.573 306.11C374.288 303.738 374.362 302.694 374.481 300.274C376.409 300.172 377.669 300.171 379.599 300.253C379.298 295.335 379.494 288.609 379.499 283.569C379.446 276.069 379.453 268.568 379.522 261.067L374.578 261.062C374.434 259.487 373.976 256.625 374.789 255.293L375.681 255.111Z"/><path fill="#FE0100" transform="matrix(0.916 0 0 0.916 0.0078125 0)" d="M464.14 254.351C472.293 253.423 476.621 257.118 481.433 262.916L483.672 263.683C483.518 265.626 483.628 267.139 483.835 269.058C481.16 269.016 478.302 269.081 475.613 269.098C475.181 267.583 474.598 265.844 473.749 264.593C470.827 259.584 460.203 259.506 457.011 264.2C452.964 270.151 458.117 274.176 463.405 275.712C468.689 277.247 474.834 279.097 479.027 282.337C484.741 286.757 484.339 296.443 479.821 301.537C476.157 305.667 470.662 307.029 465.417 307.415C458.7 307.051 452.157 304.495 449.708 297.578C449.098 295.856 448.413 297.05 446.972 295.884C443.884 289.189 451.481 290.463 455.482 290.466C455.479 290.759 455.481 291.053 455.49 291.346C455.715 298.637 460.52 300.775 467.031 300.541C471.962 300.364 476.558 296.888 475.724 291.598C474.826 285.907 467.525 284.413 462.877 283.1C455.885 281.125 449.775 278.762 448.629 270.617C448.096 266.919 449.102 263.165 451.413 260.228C454.616 256.123 459.222 254.878 464.14 254.351Z"/><path fill="#FE0100" transform="matrix(0.916 0 0 0.916 0.0078125 0)" d="M301.638 187.595C313.254 187.677 324.87 187.628 336.485 187.447C336.347 191.772 336.321 197.273 336.438 201.581C334.144 201.518 331.816 201.651 329.53 201.816C329.436 198.946 329.485 196.207 329.53 193.339C327.569 193.575 314.366 193.447 312.446 193.267C312.6 197.822 312.651 204.153 312.422 208.674C316.045 208.288 322.968 208.501 326.985 208.443C326.916 210.307 327.015 212.396 327.065 214.281C322.594 214.107 317.017 214.287 312.421 214.23C312.616 218.707 312.528 223.554 312.525 228.062C312.525 228.782 312.42 229.763 312.362 230.504C317.002 230.318 325.08 230.274 329.622 230.472C329.423 227.714 329.467 224.983 329.471 222.218C331.812 222.224 334.153 222.216 336.494 222.194C336.447 226.291 336.213 232.216 336.464 236.186C334.845 236.068 333.235 236.026 331.612 236.048C321.616 236.187 311.492 235.882 301.508 236.254C301.396 234.338 301.23 232.41 301.394 230.501C303.298 230.4 304.322 230.333 306.202 230.527C305.827 226.028 305.994 219.748 305.996 215.126C305.953 207.894 305.992 200.662 306.114 193.431C304.611 193.486 303.017 193.485 301.504 193.51C301.395 192.059 301.024 188.838 301.638 187.595Z"/><path fill="#FE0100" transform="matrix(0.916 0 0 0.916 0.0078125 0)" d="M319.124 254.113C327.592 254.232 331.633 256.458 337.619 262.455L341.141 262.472C340.979 264.518 341.054 266.677 341.081 268.738C338.921 268.589 336.252 268.721 333.877 268.59C330.404 264.38 326.705 261.083 321 260.531C316.707 260.139 312.435 261.485 309.142 264.267C300.832 271.246 299.673 286.496 306.922 294.641C313.201 301.695 323.505 302.841 330.608 296.317C332.792 294.117 333.788 292.207 335.343 289.556C337.473 290.532 339.235 291.367 341.31 292.49C338.758 300.979 329.284 306.85 320.725 307.092C287.913 308.022 285.749 255.578 319.124 254.113Z"/><path fill="#FE0100" transform="matrix(0.916 0 0 0.916 0.0078125 0)" d="M247.923 186.604C248.152 186.595 248.381 186.59 248.609 186.587C256.005 186.511 260.73 189.684 265.87 194.637L269.106 194.596C269.048 196.654 269.08 198.487 269.138 200.549C266.961 200.588 264.784 200.58 262.607 200.525C258.723 196.975 256.93 193.927 251.022 192.997C247.022 192.362 242.935 193.355 239.673 195.754C229.828 203.066 229.276 221.063 239.919 227.904C242.327 229.452 243.039 230.296 246.084 230.672C250.977 231.275 254.776 230.341 258.644 227.3C261.12 224.997 262.02 223.241 263.797 220.412C265.757 221.388 267.734 222.331 269.726 223.241C268.646 225.203 267.733 226.858 266.344 228.621C262.631 233.342 257.158 236.349 251.182 236.952C245.158 237.602 239.122 235.84 234.394 232.052C220.544 220.736 222.98 195.076 240.132 188.295C242.968 187.174 244.902 186.886 247.923 186.604Z"/><path fill="#FE0100" transform="matrix(0.916 0 0 0.916 0.0078125 0)" d="M475.959 193.215C474.586 193.444 473.211 193.616 471.825 193.466C470.337 192.53 470.438 189.637 471.066 188.165C472.283 187.27 484.375 187.503 486.968 187.479C486.798 189.569 487.572 191.863 486.076 193.242C484.907 193.617 483.871 193.402 482.628 193.286C480.473 196.644 478.28 199.977 476.05 203.285C466.668 218.141 469.307 213.403 469.014 230.49C471.053 230.266 472.002 230.291 474.071 230.383C473.984 232.462 474.022 234.14 474.095 236.225C470.035 235.804 462.528 236.149 458.27 236.269C457.99 234.464 458.036 232.196 458.017 230.33C459.535 230.347 461.071 230.444 462.588 230.523C462.305 225.443 462.455 218.753 462.513 213.613C458.423 207.24 453.724 199.838 449.9 193.355C448.628 193.432 447.307 193.474 446.03 193.53L445.982 187.536C451.251 187.665 456.733 187.546 462.019 187.501C461.931 189.353 461.955 191.446 461.934 193.316C461.204 193.361 457.848 193.225 457.553 193.497C457.709 194.224 465.463 207.021 466.567 208.871C467.364 206.237 474.106 195.988 475.959 193.215Z"/><path fill="#FE0100" transform="matrix(0.916 0 0 0.916 0.0078125 0)" d="M238.003 258.586L253.561 258.452C253.473 260.452 253.526 262.407 253.562 264.405C251.868 264.407 250.356 264.319 248.665 264.215C248.992 274.037 248.551 283.987 248.755 293.821C248.807 296.322 248.864 298.997 248.708 301.479C250.405 301.408 251.913 301.442 253.613 301.484C253.483 303.103 253.835 306.042 253.438 307.216L237.653 307.22C237.46 305.269 237.529 303.486 237.567 301.534C239.231 301.412 240.752 301.474 242.417 301.515C241.727 293.505 242.589 284.397 242.253 276.295C242.099 272.591 242.183 268.036 242.358 264.323C240.91 264.467 239.146 264.397 237.659 264.381C237.556 262.801 237.123 259.788 238.003 258.586Z"/><path fill="#FE0100" transform="matrix(0.916 0 0 0.916 0.0078125 0)" d="M0 176.036C7.15623 176.156 14.4922 176.091 21.6534 176.023C38.682 175.861 55.8086 176.255 72.8255 175.997C72.4794 180.944 72.5201 186.774 72.6207 191.761C73 210.556 72.1661 229.668 72.6422 248.436C95.3311 248.043 119.003 249.001 141.557 248.251C140.992 268.276 141.837 288.635 141.482 308.689C141.435 311.319 141.405 314.082 141.457 316.702C134.935 316.348 125.531 316.64 118.807 316.644L72.5456 316.636L72.6567 273.283C72.6474 265.315 72.3317 256.583 72.5744 248.665C69.374 248.423 65.6818 248.545 62.4196 248.56L46.5592 248.599C31.2023 248.592 15.3203 248.39 0 248.64L0 176.036ZM92.1495 264.279L96.8259 264.128C96.47 269.515 96.7917 276.672 96.7987 282.191C96.8061 288.066 96.376 295.927 96.8527 301.666C95.2796 301.639 93.6675 301.629 92.0989 301.573C92.3295 303.914 92.4933 304.877 92.2024 307.196C96.6046 307.054 103.374 306.923 107.753 307.047C107.461 305.018 107.446 303.679 107.675 301.618C105.996 301.626 104.284 301.652 102.608 301.637C102.521 299.042 102.543 296.773 102.598 294.188C102.563 292.087 102.211 286.669 103.011 284.998C104.327 284.128 109.853 284.464 111.643 284.518C127.859 285.013 132.684 263.045 116.115 259.378C109.519 257.919 99.2122 258.883 92.0451 258.675C92.4941 260.95 92.5622 261.884 92.1495 264.279ZM33.2073 187.102C10.9866 189.411 5.85491 219.687 21.2448 231.704C25.8802 235.338 31.7864 236.946 37.6244 236.165C42.7689 235.47 47.4179 232.735 50.525 228.576C51.0119 227.931 51.492 227.281 51.9652 226.625C51.9547 229.716 52.0223 233.235 51.9109 236.302C54.2113 236.149 55.4824 236.161 57.7882 236.295C57.4159 233.682 57.5457 228.992 57.5785 226.158C57.6253 222.116 57.3668 217.092 57.6107 213.14C53.5214 213.35 41.297 213.473 37.4423 213.072L37.533 217.312L37.4653 218.253C38.2279 218.815 49.3221 218.456 51.078 218.386C49.3575 223.099 47.9649 226.926 42.9661 229.255C39.1682 231.025 33.7743 231.306 29.832 229.855C25.6926 228.303 22.3545 225.146 20.5741 221.1C11.3707 200.71 35.0672 181.041 49.0554 200.302L49.2582 200.576C51.7783 200.422 53.2988 200.305 55.8308 200.494C55.4395 198.41 55.5382 198.001 55.561 195.903L55.1738 195.747C53.9176 195.234 52.773 194.652 51.7338 193.764C46.2311 189.064 40.7055 186.024 33.2073 187.102Z"/><path fill="#FE0100" transform="matrix(0.916 0 0 0.916 0.0078125 0)" d="M102.507 264.287C106.624 264.078 115.061 263.385 118.154 266.58C120.534 269.039 120.577 274.531 117.993 277.015C114.084 280.482 107.847 279.564 102.661 279.478C102.339 275.661 102.537 268.468 102.507 264.287Z"/></svg>